<svg xmlns="http://www.w3.org/2000/svg" width="506" height="85" viewBox="0 0 506 85"><path d="M141.7 23.1c-8.4 24.2-9.5 27.7-10.4 30.7-.9-3-2.1-6.5-10.4-30.7h-7.1l13.6 38.7h7.8l13.6-38.7h-7.1zm41.5 0h-28v6h10.7v32.8h6.5V29.1h10.8zm13.1 38.8V23.1h22.1v1.7H198v16h19.2v1.7H198v17.7h21.3v1.7h-23zm33.5 0V23.1h1.9c19.6 28.8 21.1 31.1 24 35.8-.1-6.3-.2-14-.2-35.8h1.8v38.7h-1.4c-17.1-25.3-21.4-31.6-24.4-36.2.1 6.5.1 13.4.1 36.2h-1.8zm49.2 0V24.8h-13.6v-1.7h28.9v1.7h-13.6v37.1H279zm23.5 0V23.1h22.1v1.7h-20.3v16h19.2v1.7h-19.2v17.7h21.3v1.7h-23.1zM348 43.7c-.8.1-1.7.1-2.5.1h-7.7v18.1H336V23.1h7.5c3.4 0 6.3.1 8.7.9 4.1 1.3 6.4 4.3 6.4 9.1 0 5.7-3.6 9.1-8.8 10.3l11.4 18.5h-2.1L348 43.7zm-3.3-1.5c3.1 0 5.9-.3 8-1.5 2.3-1.3 3.8-4.1 3.8-7.6s-1.6-6.3-4.9-7.5c-2.1-.7-4.7-.8-8.1-.8h-5.8v17.4h7zm24 19.7V23.1h7.6c3.4 0 6.6.1 9 .9 4 1.3 6.3 4.4 6.3 9.1 0 6.2-3.2 9.1-7.6 10.3-2.6.7-6 .8-9.1.8h-4.5v17.7h-1.7zm6.3-19.4c2.8 0 6.4-.1 8.8-.9 3.6-1.1 6-3.3 6-8.6 0-3.5-1.5-6.2-5-7.4-2.1-.7-5.1-.9-8.5-.9h-5.8v17.7h4.5zm37.8 1.2c-.8.1-1.7.1-2.5.1h-7.7v18.1h-1.7V23.1h7.5c3.4 0 6.3.1 8.7.9 4.1 1.3 6.4 4.3 6.4 9.1 0 5.7-3.6 9.1-8.8 10.3l11.4 18.5H424l-11.2-18.2zm-3.3-1.5c3.1 0 5.9-.3 8-1.5 2.3-1.3 3.8-4.1 3.8-7.6s-1.6-6.3-4.9-7.5c-2.1-.7-4.7-.8-8.1-.8h-5.8v17.4h7zm24.1 19.7V23.1h1.7v38.7h-1.7zm12.1-3.6c2.8 1.5 6.9 2.6 10 2.6 6.8 0 10.8-3.3 10.8-8.3 0-4.1-1.4-6.2-8.6-9.2l-4.8-1.9c-5.3-2.2-6.9-5.3-6.9-9.3 0-5.5 4-9.8 12.2-9.8 3.7 0 6.4.6 9.3 1.5l-.5 1.9c-2.8-1-6.8-1.7-9.3-1.7-7.5 0-9.9 4.6-9.9 8 0 3.3.9 5.7 7 8.3l5.4 2.2c5.3 2.2 7.9 4.9 7.9 9.5 0 6.6-4.7 10.7-12.6 10.7-4.5 0-8.3-1.2-10.9-2.7l.9-1.8zm32.7 3.6V23.1h22.1v1.7h-20.3v16h19.2v1.7h-19.2v17.7h21.3v1.7h-23.1zM74.2 81.3l16.4-16.6v-61l-8.3 14.4V73H24.2l30.7-30.5L24.2 12h51.9l14.5-8.3h-86l38.9 38.8L4.6 81.3z" fill="#394EFF"/></svg>
